<?xml version="1.0" encoding="UTF-8"?>
<svg width="215px" height="58px" viewBox="0 0 215 58" version="1.1" xmlns="http://www.w3.org/2000/svg" xmlns:xlink="http://www.w3.org/1999/xlink">
    <!-- Generator: Sketch 55 (78076) - https://sketchapp.com -->
    <title>Group 17</title>
    <desc>Created with Sketch.</desc>
    <defs>
        <polygon id="path-1" points="0 0.292525748 80.8585116 0.292525748 80.8585116 29.53125 0 29.53125"></polygon>
    </defs>
    <g id="Extras" stroke="none" stroke-width="1" fill="none" fill-rule="evenodd">
        <g id="Footer" transform="translate(-576.000000, -535.000000)">
            <g id="Group-5">
                <g id="Group-13-Copy">
                    <g id="Group-17" transform="translate(576.000000, 535.000000)">
                        <polygon id="Fill-1" fill="#FFFFFF" points="172.187648 29.6547405 172.187648 29.6547405 177.175814 29.6547405 165.979211 57.007333 161.191933 57.007333"></polygon>
                        <polygon id="Fill-2" fill="#FFFFFF" points="127.338316 57.0072082 127.338316 57.0072082 105.719194 57.0072082 117.022881 29.6546158 138.626646 29.6546158 137.576549 32.5478464 120.867978 32.5478464 117.532572 40.3428486 134.256501 40.3428486 132.944088 43.5205775 116.235516 43.5205775 111.942572 53.8290634 128.651144 54.0029234"></polygon>
                        <g id="Group-16" transform="translate(0.000000, 0.135594)">
                            <path d="M213.023038,35.8178292 L213.023038,35.8178292 L214.784128,31.9887491 C214.784128,31.9887491 209.88686,27.6326818 196.585499,29.415371 C189.57185,30.3458134 182.326599,33.6009058 177.799978,39.2746492 C175.745026,41.8322218 174.648443,44.4987689 174.540113,46.7152764 C174.354997,50.3584344 177.259572,55.3654371 185.153559,56.8690352 C190.050827,57.8148671 196.77103,57.3960224 205.422082,54.4508002 L207.090615,50.1725123 C207.090615,50.1725123 198.779495,55.5979437 188.088848,53.9080075 C181.260731,52.823254 178.402642,48.3120436 180.086117,43.6149111 C182.43493,37.0577258 191.61103,33.1978666 197.867613,32.3605933 C204.696146,31.4459564 210.582082,32.8106329 213.023038,35.8178292" id="Fill-3" fill="#FFFFFF"></path>
                            <polygon id="Fill-5" fill="#D0237B" points="82.739056 13.4850086 82.739056 13.4850086 89.7888147 44.6101142 105.304095 29.8070552"></polygon>
                            <polygon id="Fill-7" fill="#FFFFFF" points="78.6790425 28.5759765 78.6790425 28.5759765 82.9670058 28.5759765 78.5375077 7.59797469 108.174718 28.5439496 113.766378 28.5439496 72.3967259 0.280463688"></polygon>
                            <polygon id="Fill-9" fill="#FFFFFF" points="79.2317336 30.4622746 79.2317336 30.4622746 83.3922741 30.4622746 88.0172645 50.4162491 108.421097 30.4622746 113.766212 30.4622746 85.4729595 56.8715308"></polygon>
                            <g id="Group-13" transform="translate(0.000000, 28.283451)">
                                <mask id="mask-2" fill="white">
                                    <use xlink:href="#path-1"></use>
                                </mask>
                                <g id="Clip-12"></g>
                                <path d="M4.71198649,28.4724091 L4.71198649,28.4724091 L-0.000166023166,28.4724091 L19.8026622,0.292525748 L24.6841583,22.5877876 L47.9821892,0.292525748 L44.748473,27.6630033 L74.1449498,0.386110695 L80.8585116,28.4724091 L75.6383282,28.4724091 L73.7137046,20.3612978 L57.9145251,20.3612978 L49.2759247,28.4724091 L39.9441776,28.4724091 L42.2232606,10.4591785 L21.8970444,29.5313748 L17.2620927,10.381399 L4.71198649,28.4724091 Z M60.6862819,17.3719866 L60.6862819,17.3719866 L73.4825174,17.3719866 L71.2187915,7.73481668 L60.6862819,17.3719866 Z" id="Fill-11" fill="#FFFFFF" mask="url(#mask-2)"></path>
                            </g>
                            <path d="M132.045404,56.871614 L132.045404,56.871614 L136.979613,56.871614 L142.660511,43.3529564 L152.497798,56.871614 L158.81747,56.871614 L148.668889,43.952316 C154.225269,43.7314555 160.451553,43.5580114 163.486872,37.5481941 C166.833069,29.5190216 156.778291,29.5822434 156.778291,29.5822434 L143.641292,29.5822434 L132.045404,56.871614 Z M143.485646,41.3656281 L143.485646,41.3656281 L147.221167,32.4688191 L154.038493,32.4688191 C157.758657,32.4688191 160.14026,33.967842 158.599565,37.2799173 C157.120713,40.4821862 153.992007,41.397239 150.692296,41.4130445 C146.178542,41.4758504 144.263879,41.397239 143.485646,41.3656281 L143.485646,41.3656281 Z" id="Fill-14" fill="#FFFFFF"></path>
                        </g>
                    </g>
                </g>
            </g>
        </g>
    </g>
</svg>